<svg id="visual" viewBox="0 0 1920 1080" width="1920" height="1080" xmlns="http://www.w3.org/2000/svg" xmlns:xlink="http://www.w3.org/1999/xlink" version="1.1"><rect x="0" y="0" width="1920" height="1080" fill="#001220"></rect><path d="M0 675L29.2 662.7C58.3 650.3 116.7 625.7 174.8 621.7C233 617.7 291 634.3 349.2 668.3C407.3 702.3 465.7 753.7 523.8 756.3C582 759 640 713 698.2 687.3C756.3 661.7 814.7 656.3 872.8 648.3C931 640.3 989 629.7 1047.2 644.2C1105.3 658.7 1163.7 698.3 1221.8 726.7C1280 755 1338 772 1396.2 758.5C1454.3 745 1512.7 701 1570.8 694C1629 687 1687 717 1745.2 716.2C1803.3 715.3 1861.7 683.7 1890.8 667.8L1920 652L1920 1081L1890.8 1081C1861.7 1081 1803.3 1081 1745.2 1081C1687 1081 1629 1081 1570.8 1081C1512.7 1081 1454.3 1081 1396.2 1081C1338 1081 1280 1081 1221.8 1081C1163.7 1081 1105.3 1081 1047.2 1081C989 1081 931 1081 872.8 1081C814.7 1081 756.3 1081 698.2 1081C640 1081 582 1081 523.8 1081C465.7 1081 407.3 1081 349.2 1081C291 1081 233 1081 174.8 1081C116.7 1081 58.3 1081 29.2 1081L0 1081Z" fill="#002bdc"></path><path d="M0 758L29.2 750C58.3 742 116.7 726 174.8 725.2C233 724.3 291 738.7 349.2 753C407.3 767.3 465.7 781.7 523.8 791.5C582 801.3 640 806.7 698.2 803.3C756.3 800 814.7 788 872.8 766.3C931 744.7 989 713.3 1047.2 714C1105.3 714.7 1163.7 747.3 1221.8 762.5C1280 777.7 1338 775.3 1396.2 781.5C1454.3 787.7 1512.7 802.3 1570.8 804.8C1629 807.3 1687 797.7 1745.2 782.2C1803.3 766.7 1861.7 745.3 1890.8 734.7L1920 724L1920 1081L1890.8 1081C1861.7 1081 1803.3 1081 1745.2 1081C1687 1081 1629 1081 1570.8 1081C1512.7 1081 1454.3 1081 1396.2 1081C1338 1081 1280 1081 1221.8 1081C1163.7 1081 1105.3 1081 1047.2 1081C989 1081 931 1081 872.8 1081C814.7 1081 756.3 1081 698.2 1081C640 1081 582 1081 523.8 1081C465.7 1081 407.3 1081 349.2 1081C291 1081 233 1081 174.8 1081C116.7 1081 58.3 1081 29.2 1081L0 1081Z" fill="#0053ed"></path><path d="M0 701L29.2 706.3C58.3 711.7 116.7 722.3 174.8 743C233 763.7 291 794.3 349.2 806.5C407.3 818.7 465.7 812.3 523.8 819.8C582 827.3 640 848.7 698.2 857.7C756.3 866.7 814.7 863.3 872.8 856.7C931 850 989 840 1047.2 841.8C1105.3 843.7 1163.7 857.3 1221.8 836.3C1280 815.3 1338 759.7 1396.2 755C1454.3 750.3 1512.7 796.7 1570.8 804.5C1629 812.3 1687 781.7 1745.2 762C1803.3 742.3 1861.7 733.7 1890.8 729.3L1920 725L1920 1081L1890.8 1081C1861.7 1081 1803.3 1081 1745.2 1081C1687 1081 1629 1081 1570.8 1081C1512.7 1081 1454.3 1081 1396.2 1081C1338 1081 1280 1081 1221.8 1081C1163.7 1081 1105.3 1081 1047.2 1081C989 1081 931 1081 872.8 1081C814.7 1081 756.3 1081 698.2 1081C640 1081 582 1081 523.8 1081C465.7 1081 407.3 1081 349.2 1081C291 1081 233 1081 174.8 1081C116.7 1081 58.3 1081 29.2 1081L0 1081Z" fill="#0072f8"></path><path d="M0 878L29.2 875C58.3 872 116.7 866 174.8 853.7C233 841.3 291 822.7 349.2 824.3C407.3 826 465.7 848 523.8 854.5C582 861 640 852 698.2 847.2C756.3 842.3 814.7 841.7 872.8 829C931 816.3 989 791.7 1047.2 795.2C1105.3 798.7 1163.7 830.3 1221.8 841.7C1280 853 1338 844 1396.2 853.3C1454.3 862.7 1512.7 890.3 1570.8 903.3C1629 916.3 1687 914.7 1745.2 894.8C1803.3 875 1861.7 837 1890.8 818L1920 799L1920 1081L1890.8 1081C1861.7 1081 1803.3 1081 1745.2 1081C1687 1081 1629 1081 1570.8 1081C1512.7 1081 1454.3 1081 1396.2 1081C1338 1081 1280 1081 1221.8 1081C1163.7 1081 1105.3 1081 1047.2 1081C989 1081 931 1081 872.8 1081C814.7 1081 756.3 1081 698.2 1081C640 1081 582 1081 523.8 1081C465.7 1081 407.3 1081 349.2 1081C291 1081 233 1081 174.8 1081C116.7 1081 58.3 1081 29.2 1081L0 1081Z" fill="#008efd"></path><path d="M0 872L29.2 868.3C58.3 864.7 116.7 857.3 174.8 857.5C233 857.7 291 865.3 349.2 867.5C407.3 869.7 465.7 866.3 523.8 877.2C582 888 640 913 698.2 920.3C756.3 927.7 814.7 917.3 872.8 902.3C931 887.3 989 867.7 1047.2 859.8C1105.3 852 1163.7 856 1221.8 865C1280 874 1338 888 1396.2 895.7C1454.3 903.3 1512.7 904.7 1570.8 910.3C1629 916 1687 926 1745.2 917.3C1803.3 908.7 1861.7 881.3 1890.8 867.7L1920 854L1920 1081L1890.8 1081C1861.7 1081 1803.3 1081 1745.2 1081C1687 1081 1629 1081 1570.8 1081C1512.7 1081 1454.3 1081 1396.2 1081C1338 1081 1280 1081 1221.8 1081C1163.7 1081 1105.3 1081 1047.2 1081C989 1081 931 1081 872.8 1081C814.7 1081 756.3 1081 698.2 1081C640 1081 582 1081 523.8 1081C465.7 1081 407.3 1081 349.2 1081C291 1081 233 1081 174.8 1081C116.7 1081 58.3 1081 29.2 1081L0 1081Z" fill="#00a8ff"></path><path d="M0 896L29.2 896.8C58.3 897.7 116.7 899.3 174.8 899.8C233 900.3 291 899.7 349.2 901.8C407.3 904 465.7 909 523.8 910.8C582 912.7 640 911.3 698.2 923C756.3 934.7 814.7 959.3 872.8 961.3C931 963.3 989 942.7 1047.2 927C1105.3 911.3 1163.7 900.7 1221.8 907.5C1280 914.3 1338 938.7 1396.2 947.2C1454.3 955.7 1512.7 948.3 1570.8 949C1629 949.7 1687 958.3 1745.2 954.3C1803.3 950.3 1861.7 933.7 1890.8 925.3L1920 917L1920 1081L1890.8 1081C1861.7 1081 1803.3 1081 1745.2 1081C1687 1081 1629 1081 1570.8 1081C1512.7 1081 1454.3 1081 1396.2 1081C1338 1081 1280 1081 1221.8 1081C1163.7 1081 1105.3 1081 1047.2 1081C989 1081 931 1081 872.8 1081C814.7 1081 756.3 1081 698.2 1081C640 1081 582 1081 523.8 1081C465.7 1081 407.3 1081 349.2 1081C291 1081 233 1081 174.8 1081C116.7 1081 58.3 1081 29.2 1081L0 1081Z" fill="#00bdfa"></path><path d="M0 1010L29.2 1001.7C58.3 993.3 116.7 976.7 174.8 970.5C233 964.3 291 968.7 349.2 974.8C407.3 981 465.7 989 523.8 989.7C582 990.3 640 983.7 698.2 976.2C756.3 968.7 814.7 960.3 872.8 963.8C931 967.3 989 982.7 1047.2 993.2C1105.3 1003.7 1163.7 1009.3 1221.8 1005.5C1280 1001.7 1338 988.3 1396.2 986.7C1454.3 985 1512.7 995 1570.8 1000.7C1629 1006.3 1687 1007.7 1745.2 1000.5C1803.3 993.3 1861.7 977.7 1890.8 969.8L1920 962L1920 1081L1890.8 1081C1861.7 1081 1803.3 1081 1745.2 1081C1687 1081 1629 1081 1570.8 1081C1512.7 1081 1454.3 1081 1396.2 1081C1338 1081 1280 1081 1221.8 1081C1163.7 1081 1105.3 1081 1047.2 1081C989 1081 931 1081 872.8 1081C814.7 1081 756.3 1081 698.2 1081C640 1081 582 1081 523.8 1081C465.7 1081 407.3 1081 349.2 1081C291 1081 233 1081 174.8 1081C116.7 1081 58.3 1081 29.2 1081L0 1081Z" fill="#00cfe9"></path><path d="M0 1044L29.2 1036.2C58.3 1028.3 116.7 1012.7 174.8 1015.3C233 1018 291 1039 349.2 1044.2C407.3 1049.3 465.7 1038.7 523.8 1033.7C582 1028.7 640 1029.3 698.2 1024.2C756.3 1019 814.7 1008 872.8 1006.2C931 1004.3 989 1011.7 1047.2 1010.8C1105.3 1010 1163.7 1001 1221.8 1005.7C1280 1010.3 1338 1028.7 1396.2 1036.2C1454.3 1043.7 1512.7 1040.3 1570.8 1037.2C1629 1034 1687 1031 1745.2 1033.8C1803.3 1036.7 1861.7 1045.3 1890.8 1049.7L1920 1054L1920 1081L1890.8 1081C1861.7 1081 1803.3 1081 1745.2 1081C1687 1081 1629 1081 1570.8 1081C1512.7 1081 1454.3 1081 1396.2 1081C1338 1081 1280 1081 1221.8 1081C1163.7 1081 1105.3 1081 1047.2 1081C989 1081 931 1081 872.8 1081C814.7 1081 756.3 1081 698.2 1081C640 1081 582 1081 523.8 1081C465.7 1081 407.3 1081 349.2 1081C291 1081 233 1081 174.8 1081C116.7 1081 58.3 1081 29.2 1081L0 1081Z" fill="#32ded4"></path></svg>