<svg id="visual" viewBox="0 0 1920 1080" width="1920" height="1080" xmlns="http://www.w3.org/2000/svg" xmlns:xlink="http://www.w3.org/1999/xlink" version="1.1"><rect x="0" y="0" width="1920" height="1080" fill="#001220"></rect><path d="M0 658L29.2 679C58.3 700 116.7 742 174.8 760.5C233 779 291 774 349.2 747.5C407.3 721 465.7 673 523.8 674C582 675 640 725 698.2 747.7C756.3 770.3 814.7 765.7 872.8 769.2C931 772.7 989 784.3 1047.2 764.5C1105.3 744.7 1163.7 693.3 1221.8 684.2C1280 675 1338 708 1396.2 737.5C1454.3 767 1512.7 793 1570.8 796.2C1629 799.3 1687 779.7 1745.2 750.2C1803.3 720.7 1861.7 681.3 1890.8 661.7L1920 642L1920 1081L1890.8 1081C1861.7 1081 1803.3 1081 1745.2 1081C1687 1081 1629 1081 1570.8 1081C1512.7 1081 1454.3 1081 1396.2 1081C1338 1081 1280 1081 1221.8 1081C1163.7 1081 1105.3 1081 1047.2 1081C989 1081 931 1081 872.8 1081C814.7 1081 756.3 1081 698.2 1081C640 1081 582 1081 523.8 1081C465.7 1081 407.3 1081 349.2 1081C291 1081 233 1081 174.8 1081C116.7 1081 58.3 1081 29.2 1081L0 1081Z" fill="#002bdc"></path><path d="M0 824L29.2 816.2C58.3 808.3 116.7 792.7 174.8 783.5C233 774.3 291 771.7 349.2 757C407.3 742.3 465.7 715.7 523.8 716.8C582 718 640 747 698.2 759.8C756.3 772.7 814.7 769.3 872.8 753.7C931 738 989 710 1047.2 720.8C1105.3 731.7 1163.7 781.3 1221.8 797.8C1280 814.3 1338 797.7 1396.2 776.7C1454.3 755.7 1512.7 730.3 1570.8 715.8C1629 701.3 1687 697.7 1745.2 700.7C1803.3 703.7 1861.7 713.3 1890.8 718.2L1920 723L1920 1081L1890.8 1081C1861.7 1081 1803.3 1081 1745.2 1081C1687 1081 1629 1081 1570.8 1081C1512.7 1081 1454.3 1081 1396.2 1081C1338 1081 1280 1081 1221.8 1081C1163.7 1081 1105.3 1081 1047.2 1081C989 1081 931 1081 872.8 1081C814.7 1081 756.3 1081 698.2 1081C640 1081 582 1081 523.8 1081C465.7 1081 407.3 1081 349.2 1081C291 1081 233 1081 174.8 1081C116.7 1081 58.3 1081 29.2 1081L0 1081Z" fill="#0053ed"></path><path d="M0 725L29.2 743.2C58.3 761.3 116.7 797.7 174.8 795.3C233 793 291 752 349.2 737.3C407.3 722.7 465.7 734.3 523.8 757.7C582 781 640 816 698.2 825C756.3 834 814.7 817 872.8 808C931 799 989 798 1047.2 811.7C1105.3 825.3 1163.7 853.7 1221.8 855.7C1280 857.7 1338 833.3 1396.2 805.3C1454.3 777.3 1512.7 745.7 1570.8 747C1629 748.3 1687 782.7 1745.2 803.2C1803.3 823.7 1861.7 830.3 1890.8 833.7L1920 837L1920 1081L1890.8 1081C1861.7 1081 1803.3 1081 1745.2 1081C1687 1081 1629 1081 1570.8 1081C1512.7 1081 1454.3 1081 1396.2 1081C1338 1081 1280 1081 1221.8 1081C1163.7 1081 1105.3 1081 1047.2 1081C989 1081 931 1081 872.8 1081C814.7 1081 756.3 1081 698.2 1081C640 1081 582 1081 523.8 1081C465.7 1081 407.3 1081 349.2 1081C291 1081 233 1081 174.8 1081C116.7 1081 58.3 1081 29.2 1081L0 1081Z" fill="#0072f8"></path><path d="M0 888L29.2 886.5C58.3 885 116.7 882 174.8 877.2C233 872.3 291 865.7 349.2 862.5C407.3 859.3 465.7 859.7 523.8 864.7C582 869.7 640 879.3 698.2 867.7C756.3 856 814.7 823 872.8 822.2C931 821.3 989 852.7 1047.2 873.5C1105.3 894.3 1163.7 904.7 1221.8 910.8C1280 917 1338 919 1396.2 913.7C1454.3 908.3 1512.7 895.7 1570.8 878.2C1629 860.7 1687 838.3 1745.2 842.8C1803.3 847.3 1861.7 878.7 1890.8 894.3L1920 910L1920 1081L1890.8 1081C1861.7 1081 1803.3 1081 1745.2 1081C1687 1081 1629 1081 1570.8 1081C1512.7 1081 1454.3 1081 1396.2 1081C1338 1081 1280 1081 1221.8 1081C1163.7 1081 1105.3 1081 1047.2 1081C989 1081 931 1081 872.8 1081C814.7 1081 756.3 1081 698.2 1081C640 1081 582 1081 523.8 1081C465.7 1081 407.3 1081 349.2 1081C291 1081 233 1081 174.8 1081C116.7 1081 58.3 1081 29.2 1081L0 1081Z" fill="#008efd"></path><path d="M0 812L29.2 816.5C58.3 821 116.7 830 174.8 847.5C233 865 291 891 349.2 898.7C407.3 906.3 465.7 895.7 523.8 883.8C582 872 640 859 698.2 856.8C756.3 854.7 814.7 863.3 872.8 865.2C931 867 989 862 1047.2 868.5C1105.3 875 1163.7 893 1221.8 908.3C1280 923.7 1338 936.3 1396.2 927.5C1454.3 918.7 1512.7 888.3 1570.8 872.2C1629 856 1687 854 1745.2 848.3C1803.3 842.7 1861.7 833.3 1890.8 828.7L1920 824L1920 1081L1890.8 1081C1861.7 1081 1803.3 1081 1745.2 1081C1687 1081 1629 1081 1570.8 1081C1512.7 1081 1454.3 1081 1396.2 1081C1338 1081 1280 1081 1221.8 1081C1163.7 1081 1105.3 1081 1047.2 1081C989 1081 931 1081 872.8 1081C814.7 1081 756.3 1081 698.2 1081C640 1081 582 1081 523.8 1081C465.7 1081 407.3 1081 349.2 1081C291 1081 233 1081 174.8 1081C116.7 1081 58.3 1081 29.2 1081L0 1081Z" fill="#00a8ff"></path><path d="M0 928L29.2 920.8C58.3 913.7 116.7 899.3 174.8 892.8C233 886.3 291 887.7 349.2 886.3C407.3 885 465.7 881 523.8 893.8C582 906.7 640 936.3 698.2 939C756.3 941.7 814.7 917.3 872.8 907.3C931 897.3 989 901.7 1047.2 901.8C1105.3 902 1163.7 898 1221.8 898.2C1280 898.3 1338 902.7 1396.2 901C1454.3 899.3 1512.7 891.7 1570.8 904.8C1629 918 1687 952 1745.2 968.8C1803.3 985.7 1861.7 985.3 1890.8 985.2L1920 985L1920 1081L1890.8 1081C1861.7 1081 1803.3 1081 1745.2 1081C1687 1081 1629 1081 1570.8 1081C1512.7 1081 1454.3 1081 1396.2 1081C1338 1081 1280 1081 1221.8 1081C1163.7 1081 1105.3 1081 1047.2 1081C989 1081 931 1081 872.8 1081C814.7 1081 756.3 1081 698.2 1081C640 1081 582 1081 523.8 1081C465.7 1081 407.3 1081 349.2 1081C291 1081 233 1081 174.8 1081C116.7 1081 58.3 1081 29.2 1081L0 1081Z" fill="#00bdfa"></path><path d="M0 940L29.2 938.8C58.3 937.7 116.7 935.3 174.8 949.3C233 963.3 291 993.7 349.2 1004.2C407.3 1014.7 465.7 1005.3 523.8 991.2C582 977 640 958 698.2 960.2C756.3 962.3 814.7 985.7 872.8 996.8C931 1008 989 1007 1047.2 1006.8C1105.3 1006.7 1163.7 1007.3 1221.8 997.8C1280 988.3 1338 968.7 1396.2 958.2C1454.3 947.7 1512.7 946.3 1570.8 958.7C1629 971 1687 997 1745.2 1002.5C1803.3 1008 1861.7 993 1890.8 985.5L1920 978L1920 1081L1890.8 1081C1861.7 1081 1803.3 1081 1745.2 1081C1687 1081 1629 1081 1570.8 1081C1512.7 1081 1454.3 1081 1396.2 1081C1338 1081 1280 1081 1221.8 1081C1163.7 1081 1105.3 1081 1047.2 1081C989 1081 931 1081 872.8 1081C814.7 1081 756.3 1081 698.2 1081C640 1081 582 1081 523.8 1081C465.7 1081 407.3 1081 349.2 1081C291 1081 233 1081 174.8 1081C116.7 1081 58.3 1081 29.2 1081L0 1081Z" fill="#00cfe9"></path><path d="M0 1030L29.2 1023C58.3 1016 116.7 1002 174.8 1003.7C233 1005.3 291 1022.7 349.2 1022.3C407.3 1022 465.7 1004 523.8 994.3C582 984.7 640 983.3 698.2 984.5C756.3 985.7 814.7 989.3 872.8 998.2C931 1007 989 1021 1047.2 1032C1105.3 1043 1163.7 1051 1221.8 1053C1280 1055 1338 1051 1396.2 1047.8C1454.3 1044.7 1512.7 1042.3 1570.8 1033.3C1629 1024.3 1687 1008.7 1745.2 998.3C1803.3 988 1861.7 983 1890.8 980.5L1920 978L1920 1081L1890.8 1081C1861.7 1081 1803.3 1081 1745.2 1081C1687 1081 1629 1081 1570.8 1081C1512.7 1081 1454.3 1081 1396.2 1081C1338 1081 1280 1081 1221.8 1081C1163.7 1081 1105.3 1081 1047.2 1081C989 1081 931 1081 872.8 1081C814.7 1081 756.3 1081 698.2 1081C640 1081 582 1081 523.8 1081C465.7 1081 407.3 1081 349.2 1081C291 1081 233 1081 174.8 1081C116.7 1081 58.3 1081 29.2 1081L0 1081Z" fill="#32ded4"></path></svg>